<svg version="1.1" id="Layer_1" xmlns="http://www.w3.org/2000/svg" xmlns:xlink="http://www.w3.org/1999/xlink" x="0px" y="0px"
	 width="100%" viewBox="0 0 512 512" enable-background="new 0 0 512 512" xml:space="preserve">
<path fill="#DC3D43" opacity="1.000000" stroke="none" 
	d="
M346.000000,513.000000 
	C230.694687,513.000000 115.889366,513.000000 1.042022,513.000000 
	C1.042022,342.402985 1.042022,171.805969 1.042022,1.104477 
	C171.555328,1.104477 342.110718,1.104477 512.833069,1.104477 
	C512.833069,171.666534 512.833069,342.333252 512.833069,513.000000 
	C457.472565,513.000000 401.986298,513.000000 346.000000,513.000000 
M331.942474,285.259064 
	C338.488708,284.066040 344.996307,282.565277 351.588470,281.738525 
	C370.379639,279.381866 375.277832,260.627655 367.136932,248.026733 
	C360.283966,237.419373 354.461884,226.149918 348.022858,215.268585 
	C346.296448,212.351151 346.087921,210.086044 348.229858,207.182449 
	C352.078308,201.965469 355.405762,196.367508 359.073914,191.012955 
	C361.488220,187.488708 361.832367,184.026413 359.624237,180.293198 
	C355.473602,173.275848 351.689117,166.015152 347.109375,159.293762 
	C345.620575,157.108795 342.176666,155.181213 339.541077,155.063751 
	C332.923767,154.768814 326.237885,155.372803 319.617706,156.012009 
	C315.368317,156.422318 312.981628,154.893814 310.924133,151.171432 
	C303.842651,138.359802 296.580383,125.640434 289.065765,113.078049 
	C281.342163,100.166275 266.207520,98.551926 255.664886,109.266045 
	C254.034668,110.922791 252.546768,112.733566 251.110687,114.565323 
	C223.678543,149.555084 196.344147,184.622131 168.737671,219.473663 
	C165.527725,223.526031 161.212082,227.035645 156.756317,229.708939 
	C139.780991,239.893539 122.383080,249.375259 105.434387,259.602386 
	C84.158470,272.440643 76.191704,297.503174 85.746590,319.909058 
	C95.095100,341.831024 119.099197,353.369476 142.710648,346.953430 
	C146.755966,345.854156 148.523560,346.755768 150.526199,350.282776 
	C161.204849,369.089874 171.891937,387.903900 183.146820,406.367645 
	C189.793854,417.272156 202.020706,421.193085 214.070099,417.550873 
	C230.901367,412.463257 238.341843,393.651642 229.620056,377.477081 
	C224.174667,367.378601 218.195053,357.567871 212.437637,347.638153 
	C209.232544,342.110382 209.226990,342.138733 215.025269,338.886169 
	C218.361679,337.014587 221.687836,335.120941 224.964188,333.146881 
	C230.947342,329.541931 231.727859,326.570099 228.307205,320.330109 
	C225.944778,316.020538 223.471146,311.771942 220.851898,307.151550 
	C257.996277,299.841492 294.552887,292.647095 331.942474,285.259064 
M417.197723,119.728142 
	C406.882111,125.470245 396.501862,131.101517 386.303345,137.044571 
	C384.170197,138.287628 381.714600,140.452347 381.218567,142.608887 
	C380.736664,144.703888 381.920441,148.513580 383.568237,149.436981 
	C385.730865,150.648849 389.557526,150.752304 391.808746,149.621201 
	C401.308624,144.848114 410.491669,139.443970 419.784821,134.260254 
	C422.833954,132.559464 425.940582,130.945587 428.885834,129.078918 
	C432.428864,126.833427 433.892883,123.628189 431.756409,119.709763 
	C429.601624,115.757866 426.083038,115.497078 422.270874,117.064445 
	C420.739319,117.694153 419.308502,118.569008 417.197723,119.728142 
M423.242157,195.949905 
	C423.916290,192.367615 422.711151,189.316025 419.303864,188.287781 
	C410.271423,185.562027 401.151001,183.072739 391.956360,180.965851 
	C388.112427,180.085068 384.603088,181.628998 383.377563,185.917099 
	C382.339844,189.548172 384.672668,193.029419 389.208710,194.333710 
	C397.331573,196.669342 405.495972,198.882080 413.709351,200.872360 
	C417.675598,201.833481 421.402679,201.312149 423.242157,195.949905 
M346.224304,112.733902 
	C345.886292,114.015663 345.509064,115.288567 345.217163,116.580742 
	C344.024353,121.860779 345.682526,125.834908 349.495483,126.903458 
	C353.906128,128.139511 357.009308,125.980957 358.635681,120.224579 
	C360.797516,112.572769 362.876923,104.894814 364.815582,97.183800 
	C366.132660,91.945320 364.278809,88.149422 360.243286,87.113739 
	C356.261505,86.091850 352.759003,88.523232 351.295288,93.664131 
	C349.571381,99.718994 348.080139,105.840103 346.224304,112.733902 
z"/>
<path fill="#FEFCFC" opacity="1.000000" stroke="none" 
	d="
M331.526001,285.355896 
	C294.552887,292.647095 257.996277,299.841492 220.851898,307.151550 
	C223.471146,311.771942 225.944778,316.020538 228.307205,320.330109 
	C231.727859,326.570099 230.947342,329.541931 224.964188,333.146881 
	C221.687836,335.120941 218.361679,337.014587 215.025269,338.886169 
	C209.226990,342.138733 209.232544,342.110382 212.437637,347.638153 
	C218.195053,357.567871 224.174667,367.378601 229.620056,377.477081 
	C238.341843,393.651642 230.901367,412.463257 214.070099,417.550873 
	C202.020706,421.193085 189.793854,417.272156 183.146820,406.367645 
	C171.891937,387.903900 161.204849,369.089874 150.526199,350.282776 
	C148.523560,346.755768 146.755966,345.854156 142.710648,346.953430 
	C119.099197,353.369476 95.095100,341.831024 85.746590,319.909058 
	C76.191704,297.503174 84.158470,272.440643 105.434387,259.602386 
	C122.383080,249.375259 139.780991,239.893539 156.756317,229.708939 
	C161.212082,227.035645 165.527725,223.526031 168.737671,219.473663 
	C196.344147,184.622131 223.678543,149.555084 251.110687,114.565323 
	C252.546768,112.733566 254.034668,110.922791 255.664886,109.266045 
	C266.207520,98.551926 281.342163,100.166275 289.065765,113.078049 
	C296.580383,125.640434 303.842651,138.359802 310.924133,151.171432 
	C312.981628,154.893814 315.368317,156.422318 319.617706,156.012009 
	C326.237885,155.372803 332.923767,154.768814 339.541077,155.063751 
	C342.176666,155.181213 345.620575,157.108795 347.109375,159.293762 
	C351.689117,166.015152 355.473602,173.275848 359.624237,180.293198 
	C361.832367,184.026413 361.488220,187.488708 359.073914,191.012955 
	C355.405762,196.367508 352.078308,201.965469 348.229858,207.182449 
	C346.087921,210.086044 346.296448,212.351151 348.022858,215.268585 
	C354.461884,226.149918 360.283966,237.419373 367.136932,248.026733 
	C375.277832,260.627655 370.379639,279.381866 351.588470,281.738525 
	C344.996307,282.565277 338.488708,284.066040 331.526001,285.355896 
M195.819931,264.645660 
	C200.625549,273.013916 205.672302,281.256378 210.131729,289.805237 
	C212.257080,293.879578 214.788681,294.526001 218.941467,293.691833 
	C247.318497,287.991760 275.734467,282.485870 304.134247,276.898926 
	C313.542908,275.047974 322.940887,273.142792 332.954895,271.140198 
	C306.331635,225.027023 280.087708,179.570923 253.811646,134.059128 
	C253.134430,134.560959 252.808243,134.710846 252.610809,134.961975 
	C228.012650,166.249146 203.388138,197.515900 178.959137,228.934677 
	C177.925735,230.263733 177.919098,233.439392 178.780457,235.022110 
	C184.107971,244.811234 189.821533,254.390259 195.819931,264.645660 
M146.365921,331.022949 
	C162.943314,321.465179 179.504303,311.878693 196.114136,302.377625 
	C198.916382,300.774689 200.552917,299.377014 198.462662,295.815735 
	C188.187408,278.309479 178.076004,260.706451 168.007446,243.080063 
	C166.689789,240.773331 165.436111,240.494141 163.240738,241.787079 
	C145.314880,252.344284 127.110680,262.453796 109.492867,273.499725 
	C98.908966,280.135590 94.533241,290.929504 95.678215,303.225952 
	C98.024750,328.426544 122.279678,341.885345 146.365921,331.022949 
M292.716248,174.801270 
	C310.107880,204.905838 327.540192,234.987106 344.815491,265.158295 
	C346.229584,267.627960 347.637848,268.401428 350.312134,267.948975 
	C356.742981,266.860840 359.119934,262.726654 356.042450,256.726715 
	C352.630096,250.073898 348.727783,243.670441 344.985474,237.189209 
	C322.858246,198.867126 300.719696,160.551559 278.573608,122.240372 
	C274.953064,115.977089 271.487274,114.406090 267.160736,116.973419 
	C262.579956,119.691628 262.426636,122.325012 266.401398,129.218002 
	C275.043579,144.205231 283.674622,159.198853 292.716248,174.801270 
M163.982605,346.546204 
	C173.800003,363.552032 183.525558,380.611816 193.474716,397.540192 
	C198.233856,405.637848 205.202209,407.329315 213.005447,402.774506 
	C219.764816,398.829010 221.628326,391.319977 217.324631,383.704498 
	C206.926620,365.304932 196.282791,347.044220 185.910187,328.630585 
	C184.082382,325.385803 182.378540,325.429779 179.595932,327.190308 
	C175.379730,329.857849 171.059097,332.382507 166.651672,334.720642 
	C158.935684,338.814026 158.893982,338.735413 163.982605,346.546204 
M344.216003,188.582565 
	C344.725159,186.946564 346.129669,184.882385 345.587646,183.749054 
	C343.307068,178.980133 340.500183,174.455566 337.736420,169.932922 
	C337.322174,169.255066 336.099396,168.680222 335.274139,168.709961 
	C330.885773,168.868164 326.504883,169.234207 321.329651,169.581421 
	C327.029938,179.433670 332.261475,188.475708 337.836182,198.110916 
	C340.161255,194.667404 342.000793,191.943008 344.216003,188.582565 
M202.539581,313.990601 
	C194.276001,318.966461 194.267288,320.524841 202.451187,329.813660 
	C215.816132,324.855713 216.282166,323.119110 206.949570,311.714935 
	C205.752197,312.322418 204.471588,312.972137 202.539581,313.990601 
z"/>
<path fill="#FEFBFB" opacity="1.000000" stroke="none" 
	d="
M417.514771,119.530220 
	C419.308502,118.569008 420.739319,117.694153 422.270874,117.064445 
	C426.083038,115.497078 429.601624,115.757866 431.756409,119.709763 
	C433.892883,123.628189 432.428864,126.833427 428.885834,129.078918 
	C425.940582,130.945587 422.833954,132.559464 419.784821,134.260254 
	C410.491669,139.443970 401.308624,144.848114 391.808746,149.621201 
	C389.557526,150.752304 385.730865,150.648849 383.568237,149.436981 
	C381.920441,148.513580 380.736664,144.703888 381.218567,142.608887 
	C381.714600,140.452347 384.170197,138.287628 386.303345,137.044571 
	C396.501862,131.101517 406.882111,125.470245 417.514771,119.530220 
z"/>
<path fill="#FEFBFB" opacity="1.000000" stroke="none" 
	d="
M423.157562,196.316345 
	C421.402679,201.312149 417.675598,201.833481 413.709351,200.872360 
	C405.495972,198.882080 397.331573,196.669342 389.208710,194.333710 
	C384.672668,193.029419 382.339844,189.548172 383.377563,185.917099 
	C384.603088,181.628998 388.112427,180.085068 391.956360,180.965851 
	C401.151001,183.072739 410.271423,185.562027 419.303864,188.287781 
	C422.711151,189.316025 423.916290,192.367615 423.157562,196.316345 
z"/>
<path fill="#FEFCFB" opacity="1.000000" stroke="none" 
	d="
M346.356140,112.333191 
	C348.080139,105.840103 349.571381,99.718994 351.295288,93.664131 
	C352.759003,88.523232 356.261505,86.091850 360.243286,87.113739 
	C364.278809,88.149422 366.132660,91.945320 364.815582,97.183800 
	C362.876923,104.894814 360.797516,112.572769 358.635681,120.224579 
	C357.009308,125.980957 353.906128,128.139511 349.495483,126.903458 
	C345.682526,125.834908 344.024353,121.860779 345.217163,116.580742 
	C345.509064,115.288567 345.886292,114.015663 346.356140,112.333191 
z"/>
<path fill="#DC3E44" opacity="1.000000" stroke="none" 
	d="
M195.613403,264.342346 
	C189.821533,254.390259 184.107971,244.811234 178.780457,235.022110 
	C177.919098,233.439392 177.925735,230.263733 178.959137,228.934677 
	C203.388138,197.515900 228.012650,166.249146 252.610809,134.961975 
	C252.808243,134.710846 253.134430,134.560959 253.811646,134.059128 
	C280.087708,179.570923 306.331635,225.027023 332.954895,271.140198 
	C322.940887,273.142792 313.542908,275.047974 304.134247,276.898926 
	C275.734467,282.485870 247.318497,287.991760 218.941467,293.691833 
	C214.788681,294.526001 212.257080,293.879578 210.131729,289.805237 
	C205.672302,281.256378 200.625549,273.013916 195.613403,264.342346 
z"/>
<path fill="#DC3E44" opacity="1.000000" stroke="none" 
	d="
M146.025894,331.191467 
	C122.279678,341.885345 98.024750,328.426544 95.678215,303.225952 
	C94.533241,290.929504 98.908966,280.135590 109.492867,273.499725 
	C127.110680,262.453796 145.314880,252.344284 163.240738,241.787079 
	C165.436111,240.494141 166.689789,240.773331 168.007446,243.080063 
	C178.076004,260.706451 188.187408,278.309479 198.462662,295.815735 
	C200.552917,299.377014 198.916382,300.774689 196.114136,302.377625 
	C179.504303,311.878693 162.943314,321.465179 146.025894,331.191467 
z"/>
<path fill="#DD4146" opacity="1.000000" stroke="none" 
	d="
M292.513245,174.495575 
	C283.674622,159.198853 275.043579,144.205231 266.401398,129.218002 
	C262.426636,122.325012 262.579956,119.691628 267.160736,116.973419 
	C271.487274,114.406090 274.953064,115.977089 278.573608,122.240372 
	C300.719696,160.551559 322.858246,198.867126 344.985474,237.189209 
	C348.727783,243.670441 352.630096,250.073898 356.042450,256.726715 
	C359.119934,262.726654 356.742981,266.860840 350.312134,267.948975 
	C347.637848,268.401428 346.229584,267.627960 344.815491,265.158295 
	C327.540192,234.987106 310.107880,204.905838 292.513245,174.495575 
z"/>
<path fill="#DC4045" opacity="1.000000" stroke="none" 
	d="
M163.786743,346.242523 
	C158.893982,338.735413 158.935684,338.814026 166.651672,334.720642 
	C171.059097,332.382507 175.379730,329.857849 179.595932,327.190308 
	C182.378540,325.429779 184.082382,325.385803 185.910187,328.630585 
	C196.282791,347.044220 206.926620,365.304932 217.324631,383.704498 
	C221.628326,391.319977 219.764816,398.829010 213.005447,402.774506 
	C205.202209,407.329315 198.233856,405.637848 193.474716,397.540192 
	C183.525558,380.611816 173.800003,363.552032 163.786743,346.242523 
z"/>
<path fill="#DD4347" opacity="1.000000" stroke="none" 
	d="
M344.028137,188.900604 
	C342.000793,191.943008 340.161255,194.667404 337.836182,198.110916 
	C332.261475,188.475708 327.029938,179.433670 321.329651,169.581421 
	C326.504883,169.234207 330.885773,168.868164 335.274139,168.709961 
	C336.099396,168.680222 337.322174,169.255066 337.736420,169.932922 
	C340.500183,174.455566 343.307068,178.980133 345.587646,183.749054 
	C346.129669,184.882385 344.725159,186.946564 344.028137,188.900604 
z"/>
<path fill="#DD4649" opacity="1.000000" stroke="none" 
	d="
M202.865265,313.806213 
	C204.471588,312.972137 205.752197,312.322418 206.949570,311.714935 
	C216.282166,323.119110 215.816132,324.855713 202.451187,329.813660 
	C194.267288,320.524841 194.276001,318.966461 202.865265,313.806213 
z"/>
</svg>