<svg version="1.1" id="Layer_1" xmlns="http://www.w3.org/2000/svg" xmlns:xlink="http://www.w3.org/1999/xlink" x="0px" y="0px"
	 width="100%" viewBox="0 0 500 500" enable-background="new 0 0 500 500" xml:space="preserve">
<path fill="#FF3131" opacity="1.000000" stroke="none" 
	d="
M282.000000,501.000000 
	C188.000015,501.000000 94.500046,501.000000 1.000050,501.000000 
	C1.000033,334.333405 1.000033,167.666794 1.000017,1.000140 
	C167.666565,1.000093 334.333130,1.000093 500.999756,1.000046 
	C500.999847,167.666519 500.999847,334.333038 500.999939,500.999786 
	C428.166656,501.000000 355.333344,501.000000 282.000000,501.000000 
M395.938141,171.686218 
	C396.272675,172.300232 396.607178,172.914261 396.962097,174.135330 
	C397.352448,175.059601 397.742798,175.983887 398.218445,177.678665 
	C399.498749,186.898773 400.779022,196.118881 401.964539,206.078247 
	C404.625519,210.184616 411.658661,210.263596 414.893616,205.286362 
	C414.189331,194.731857 418.066833,183.989395 412.552063,173.586838 
	C408.214020,165.404007 405.994110,155.969101 400.985352,148.296783 
	C389.015411,129.961472 371.633850,118.327553 350.705200,112.119614 
	C338.057404,108.367966 337.502502,108.860771 335.675537,122.507271 
	C334.971405,125.380302 336.802032,125.803123 338.996948,126.133293 
	C354.412872,128.452271 367.448364,135.634735 379.140625,146.512787 
	C380.979980,148.388199 382.819336,150.263626 384.938171,152.688965 
	C385.355957,153.142487 385.773773,153.595993 386.347717,154.593124 
	C386.868713,155.337692 387.389709,156.082260 388.177856,157.486176 
	C390.439819,161.248550 392.701782,165.010925 395.021210,169.433975 
	C395.334442,169.986984 395.647675,170.539993 395.993256,171.008408 
	C395.993256,171.008408 395.908569,170.976288 395.938141,171.686218 
M428.994934,160.005066 
	C428.994934,160.005066 428.930176,159.986053 428.918060,160.618912 
	C429.258575,161.110306 429.599091,161.601685 429.926056,162.018768 
	C429.926056,162.018768 429.850525,162.019638 429.860474,162.800415 
	C431.622711,169.018814 434.132416,175.138535 434.969513,181.479080 
	C436.181610,190.659637 436.183563,200.000000 436.515686,209.913101 
	C439.401764,213.892029 446.617035,213.883286 448.841034,209.028259 
	C449.068817,201.580460 449.915527,194.086197 449.360901,186.697128 
	C448.729156,178.280838 446.877136,169.953415 445.493561,161.597626 
	C444.955078,158.345840 444.944061,154.759613 443.484344,151.954605 
	C439.400726,144.107635 436.912140,135.441483 430.259399,128.871613 
	C423.902527,122.593941 418.613495,115.250229 412.550873,108.654732 
	C407.311188,102.954468 401.694244,97.595139 396.119141,92.214577 
	C395.146362,91.275742 393.567810,90.946754 392.246277,90.390091 
	C385.752167,87.654579 379.289917,84.837479 372.739319,82.243858 
	C367.067963,79.998352 361.308014,77.971291 355.543976,75.972359 
	C354.890747,75.745827 353.967682,76.432251 353.152100,76.509659 
	C351.675201,76.649841 350.167267,76.826164 348.703339,76.678841 
	C341.558441,75.959793 340.826904,76.532196 340.073944,83.853592 
	C339.954742,85.012520 339.841461,86.172066 339.554016,87.924950 
	C340.498169,89.120468 341.213257,90.904320 342.437317,91.380928 
	C344.553650,92.204971 347.009521,92.106224 349.281769,92.588577 
	C368.903534,96.753876 386.104431,105.694099 401.277771,119.367882 
	C401.462097,119.617981 401.708710,119.759842 402.202698,120.023788 
	C402.202698,120.023788 402.489807,120.093544 402.767761,120.632851 
	C403.205566,121.033470 403.643372,121.434082 404.332947,122.260513 
	C404.541687,122.518723 404.785339,122.738144 405.236664,123.575317 
	C408.305603,127.047066 411.374542,130.518814 414.748840,134.406219 
	C415.150238,134.735138 415.551636,135.064056 416.008148,135.716736 
	C416.008148,135.716736 416.206421,135.978531 416.329803,136.424896 
	C416.480804,136.712723 416.709442,136.910980 417.021576,136.984528 
	C417.021576,136.984528 416.985962,136.986298 417.129059,137.572006 
	C417.624268,138.189224 418.119476,138.806458 418.824432,140.096222 
	C420.764893,143.750473 422.705353,147.404739 424.860718,151.644531 
	C425.231384,152.111816 425.602020,152.579117 426.002563,152.999847 
	C426.002563,152.999847 425.947205,153.000320 425.911743,153.708084 
	C426.601410,155.155380 427.291077,156.602676 428.011597,157.997452 
	C428.011597,157.997452 427.952728,157.981689 427.970581,158.600204 
	C428.303375,159.089249 428.636169,159.578293 428.994934,160.005066 
M367.276367,202.272247 
	C369.769073,206.470612 377.323761,206.532425 380.033264,201.628738 
	C379.676331,196.345047 379.977173,190.914352 378.835632,185.806000 
	C375.760376,172.044449 369.398254,160.340179 356.349182,153.269653 
	C353.476624,151.713196 350.980347,149.400192 348.471741,147.248032 
	C344.253723,143.629303 340.138550,143.058975 335.699646,145.889114 
	C331.630066,148.483765 332.458191,152.816483 331.940704,157.343643 
	C333.103821,158.507538 334.071564,160.050766 335.464630,160.768158 
	C340.850891,163.542007 346.363953,166.071213 351.850586,168.647278 
	C353.138580,169.251984 354.507812,169.683533 356.200500,170.748062 
	C358.553436,174.427414 360.906372,178.106766 363.580872,182.512405 
	C364.822876,188.867081 366.064880,195.221771 367.276367,202.272247 
M82.147026,364.779633 
	C82.998909,366.962189 83.850784,369.144745 84.628922,371.588104 
	C84.636414,371.873871 84.753807,372.097473 85.226479,373.003235 
	C87.466537,377.020844 89.706596,381.038422 92.166168,385.683777 
	C93.789894,387.451599 95.413628,389.219421 97.496231,391.462738 
	C104.152519,395.947662 110.592964,400.812012 117.549370,404.769348 
	C121.463814,406.996216 126.255035,408.370453 131.034821,404.151642 
	C132.997284,402.634247 134.959763,401.116821 137.679169,399.697479 
	C138.304703,399.922180 138.958221,400.089600 139.551758,400.379761 
	C170.513931,415.517090 201.456619,430.694489 232.469025,445.728119 
	C234.113113,446.525116 236.342178,446.115417 238.918259,446.020477 
	C248.104858,438.595917 257.324066,431.210846 266.436310,423.696106 
	C267.557312,422.771667 268.107208,421.154755 268.676422,419.155487 
	C266.136932,416.538361 262.970123,414.280121 261.215851,411.213776 
	C258.997284,407.335785 256.300720,405.587708 251.858047,405.726929 
	C251.858047,405.726929 251.536560,405.689301 251.098129,405.157471 
	C249.542282,404.260529 247.986450,403.363617 246.367416,402.493317 
	C246.367416,402.493317 246.370178,402.426636 246.211823,401.780243 
	C238.843201,396.841064 231.474579,391.901886 223.745834,386.421692 
	C223.187149,386.095642 222.628464,385.769592 221.698425,384.916199 
	C218.657715,383.004333 216.772034,380.808105 216.693665,376.668243 
	C216.657364,374.750885 213.672913,372.393738 211.499954,371.163208 
	C209.631485,370.105072 206.989700,370.492462 204.737747,370.014832 
	C199.981476,369.006165 194.863434,368.727264 192.220520,363.698273 
	C193.776596,362.755188 195.259949,361.655457 196.900330,360.893951 
	C209.224854,355.172363 221.580276,349.517334 234.661972,343.777924 
	C245.868179,340.094025 256.963257,336.018890 268.301208,332.798889 
	C303.642761,322.761719 339.469238,315.475067 376.404480,314.919006 
	C381.109222,314.848206 385.755585,314.043945 388.026581,309.030304 
	C388.026581,309.030304 387.939240,309.031921 388.547638,308.827209 
	C388.768036,308.462067 388.988434,308.096924 389.499573,307.152527 
	C393.481079,301.549744 394.491333,295.275391 393.517548,288.624512 
	C391.574890,275.356171 390.100067,262.076935 383.889923,249.727280 
	C378.769867,239.545364 375.038422,229.027649 367.150452,220.011475 
	C359.083557,210.790833 353.819000,199.128540 347.227234,188.597992 
	C346.052917,186.722015 344.525726,185.006882 342.908569,183.486526 
	C341.520325,182.181381 339.610535,181.434402 338.207214,180.141266 
	C330.736664,173.257385 326.409119,163.666565 317.673492,157.662979 
	C310.751709,152.905914 305.054291,146.393677 298.660522,140.836502 
	C284.584991,128.602737 269.947601,117.580284 251.331299,112.568855 
	C237.547607,108.858322 230.089233,111.952095 225.605865,125.126480 
	C218.647583,145.573486 211.979263,166.150101 204.101181,186.245697 
	C193.204254,214.041824 178.494110,239.956741 161.536621,264.484741 
	C153.715805,275.797028 144.588913,286.206360 136.001450,297.001892 
	C136.001450,297.001892 136.025452,297.054291 135.419510,297.331421 
	C132.067307,301.016083 128.831024,304.814911 125.338165,308.361023 
	C118.596046,315.205994 111.709061,321.908234 104.294518,328.795837 
	C103.846390,329.160828 103.398262,329.525787 102.270142,330.052368 
	C94.509766,335.512665 86.544853,340.754272 81.220703,349.758636 
	C81.516228,354.513550 81.811745,359.268463 82.147026,364.779633 
z"/>
<path fill="#F1EDEE" opacity="1.000000" stroke="none" 
	d="
M81.679771,349.310211 
	C86.544853,340.754272 94.509766,335.512665 102.825073,330.104248 
	C103.880722,329.660645 104.381432,329.165131 104.882141,328.669617 
	C111.709061,321.908234 118.596046,315.205994 125.338165,308.361023 
	C128.831024,304.814911 132.067307,301.016083 135.781982,297.397247 
	C136.453033,297.671448 136.761612,297.879852 137.070190,298.088226 
	C137.097961,297.958252 137.186798,297.742493 137.143829,297.711914 
	C136.794571,297.463409 136.420624,297.249512 136.054199,297.025116 
	C144.588913,286.206360 153.715805,275.797028 161.536621,264.484741 
	C178.494110,239.956741 193.204254,214.041824 204.101181,186.245697 
	C211.979263,166.150101 218.647583,145.573486 225.605865,125.126480 
	C230.089233,111.952095 237.547607,108.858322 251.331299,112.568855 
	C269.947601,117.580284 284.584991,128.602737 298.660522,140.836502 
	C305.054291,146.393677 310.751709,152.905914 317.673492,157.662979 
	C326.409119,163.666565 330.736664,173.257385 338.207214,180.141266 
	C339.610535,181.434402 341.520325,182.181381 342.908569,183.486526 
	C344.525726,185.006882 346.052917,186.722015 347.227234,188.597992 
	C353.819000,199.128540 359.083557,210.790833 367.150452,220.011475 
	C375.038422,229.027649 378.769867,239.545364 383.889923,249.727280 
	C390.100067,262.076935 391.574890,275.356171 393.517548,288.624512 
	C394.491333,295.275391 393.481079,301.549744 389.059692,307.578583 
	C388.392975,308.347076 388.166107,308.689484 387.939240,309.031921 
	C387.939240,309.031921 388.026581,309.030304 387.648621,309.034180 
	C381.710449,312.815796 375.421204,311.194916 369.359650,311.605133 
	C341.948639,313.460175 314.806091,317.433197 288.305359,324.650238 
	C269.973816,329.642517 252.030289,336.059540 233.593140,341.857239 
	C233.082260,341.971375 232.891617,342.068115 232.621979,342.072388 
	C232.542999,341.979919 232.682129,341.840088 232.682129,341.840088 
	C232.682129,341.840088 232.760574,342.168701 232.356796,342.216553 
	C229.654007,343.147400 227.331726,343.974579 225.060272,344.923523 
	C217.532623,348.068237 210.023300,351.256805 202.370499,354.182373 
	C202.133682,353.375122 202.033295,352.814056 201.932922,352.252960 
	C201.569229,352.656677 201.205521,353.060394 200.841827,353.464142 
	C201.372681,353.809784 201.903534,354.155457 202.307281,354.823975 
	C197.846756,357.475830 193.513336,359.804779 188.474274,362.512970 
	C190.055161,363.342346 190.861618,363.765472 191.668091,364.188568 
	C194.863434,368.727264 199.981476,369.006165 204.737747,370.014832 
	C206.989700,370.492462 209.631485,370.105072 211.499954,371.163208 
	C213.672913,372.393738 216.657364,374.750885 216.693665,376.668243 
	C216.772034,380.808105 218.657715,383.004333 222.071777,385.449860 
	C222.998718,386.309937 223.552338,386.636353 224.105957,386.962738 
	C231.474579,391.901886 238.843201,396.841064 245.959991,402.295319 
	C243.142563,403.913544 240.576981,405.016693 237.671371,406.266083 
	C237.619110,406.178925 237.883423,407.261108 238.536301,407.604584 
	C242.958481,409.930756 245.149246,408.461853 246.430603,402.466675 
	C247.986450,403.363617 249.542282,404.260529 251.052246,405.704041 
	C251.003510,408.497131 251.000671,410.743683 250.638824,413.031006 
	C247.186630,414.380402 244.093445,415.688965 240.931427,416.760620 
	C240.241379,416.349518 239.620163,416.175354 238.750336,416.001221 
	C238.501709,416.001251 238.004456,416.001801 237.686401,416.140320 
	C236.245972,416.519226 235.123596,416.759613 233.669708,417.086792 
	C229.286209,420.295166 225.556885,424.056427 221.071548,426.318817 
	C217.954300,427.891052 213.567291,428.371552 210.170227,427.563324 
	C206.755493,426.750824 203.843674,423.769165 200.753571,421.675934 
	C199.573608,420.876587 198.510529,419.904663 197.324173,418.955383 
	C194.231232,419.092468 190.709335,419.248535 186.861511,419.335510 
	C172.036392,412.168701 157.573898,404.993622 142.988327,398.078094 
	C141.298492,397.276855 138.925568,397.916351 136.542603,397.956390 
	C134.154678,399.677002 132.093506,401.329102 129.594193,403.071838 
	C117.996605,403.334412 109.423050,397.683197 101.350410,390.862183 
	C100.010719,389.730225 98.511543,388.787018 97.003555,387.463379 
	C95.987137,386.101959 95.053215,385.033722 94.116508,383.610291 
	C90.731865,376.835999 87.350014,370.416901 83.986366,363.593750 
	C83.229637,358.563202 82.454704,353.936707 81.679771,349.310211 
M379.505432,273.612183 
	C379.505432,273.612183 379.525940,273.560272 379.683319,272.911072 
	C376.501831,265.563293 373.320343,258.215515 370.104004,250.103287 
	C367.312805,244.740463 364.959229,239.088806 361.646973,234.069855 
	C352.306091,219.915894 342.571472,206.021790 332.702850,191.417664 
	C323.236511,180.988037 313.873749,170.461227 304.236023,160.192444 
	C301.602966,157.386978 298.144165,155.356491 295.039948,152.992020 
	C295.039948,152.992020 295.041016,152.961746 294.897064,152.300262 
	C293.649780,151.005692 292.554688,149.505035 291.128906,148.452194 
	C284.906464,143.857361 278.846924,138.961090 272.236511,134.993576 
	C264.564148,130.388672 256.566986,126.186584 248.320312,122.745468 
	C245.063461,121.386475 240.112946,119.818138 237.118393,125.704391 
	C236.644638,127.936531 235.463623,130.291275 235.825455,132.378571 
	C237.070557,139.561264 237.822296,147.088196 240.622726,153.695297 
	C249.983017,175.779129 258.893799,198.077179 276.539429,215.634552 
	C283.811218,222.870010 288.722839,232.477509 294.067688,241.089172 
	C293.182983,241.991028 292.298309,242.892883 291.413605,243.794724 
	C291.869446,244.154938 292.325287,244.515152 292.781128,244.875381 
	C293.575562,243.793625 294.369995,242.711868 295.771759,241.949326 
	C302.946198,249.589203 310.120605,257.229065 316.707245,265.259583 
	C314.225006,267.586945 315.362946,269.492645 317.409454,271.711761 
	C318.760315,270.657349 319.908936,269.760773 321.664856,269.130463 
	C323.444397,270.750214 325.223938,272.369965 327.052917,274.579865 
	C327.758850,274.927490 328.464752,275.275085 329.763458,275.848175 
	C330.885315,276.776123 332.007141,277.704102 333.207306,279.164001 
	C333.832581,279.374084 334.457825,279.584167 335.744232,279.984467 
	C339.151550,282.579803 342.748016,284.963928 345.928955,287.812103 
	C353.867493,294.920227 363.540710,298.230438 373.559906,300.721832 
	C377.138306,301.611633 380.582794,300.938690 382.616058,296.187378 
	C382.551636,292.422729 382.487213,288.658081 382.410217,283.995270 
	C382.155640,283.134094 381.901093,282.272919 381.876984,281.600098 
	C381.876984,281.600098 381.686127,281.828522 381.784363,280.940552 
	C381.038391,278.501068 380.292419,276.061615 379.505432,273.612183 
M266.491333,324.188049 
	C265.949524,325.180328 265.407715,326.172607 264.865906,327.164917 
	C265.772705,327.296204 266.679474,327.427490 267.586273,327.558777 
	C267.453125,326.463379 267.319977,325.367981 266.491333,324.188049 
M303.315613,308.708740 
	C303.873230,309.234833 304.430878,309.760925 304.988495,310.286987 
	C305.210480,309.739868 305.432465,309.192749 305.654449,308.645599 
	C304.943359,308.483032 304.232239,308.320465 303.315613,308.708740 
M246.301529,318.043884 
	C246.254822,318.837433 246.208099,319.630981 246.161377,320.424530 
	C246.819412,320.072479 247.477432,319.720459 248.135468,319.368408 
	C247.689621,318.836456 247.243790,318.304474 246.301529,318.043884 
M200.528503,323.148224 
	C200.823608,323.900299 201.118729,324.652374 201.413849,325.404449 
	C201.835876,325.016785 202.257904,324.629089 202.679932,324.241425 
	C202.102585,323.739899 201.525253,323.238373 200.528503,323.148224 
M281.096222,255.708572 
	C280.566254,256.212982 280.036285,256.717407 279.506317,257.221832 
	C279.995514,257.533142 280.484680,257.844421 280.973877,258.155731 
	C281.145081,257.473633 281.316315,256.791504 281.096222,255.708572 
M237.306946,399.374481 
	C236.670624,399.408020 236.034286,399.441528 235.397980,399.475067 
	C235.686569,400.121765 235.975159,400.768494 236.263733,401.415192 
	C236.687943,400.905151 237.112137,400.395142 237.306946,399.374481 
M220.906204,273.970306 
	C220.388947,274.478546 219.871674,274.986786 219.354401,275.495026 
	C219.840652,275.794159 220.326904,276.093292 220.813156,276.392426 
	C220.977707,275.718903 221.142258,275.045380 220.906204,273.970306 
M246.511063,250.915039 
	C246.316772,250.257095 246.122482,249.599152 245.928177,248.941193 
	C245.510162,249.359360 245.092148,249.777512 244.674149,250.195679 
	C245.165695,250.563065 245.657227,250.930466 246.511063,250.915039 
M186.209641,306.263397 
	C185.585266,306.362671 184.960876,306.461945 184.336502,306.561188 
	C184.554291,307.102478 184.772095,307.643738 184.989868,308.185028 
	C185.463806,307.705048 185.937744,307.225098 186.209641,306.263397 
M217.485535,322.120941 
	C217.020355,322.454803 216.555176,322.788666 216.089996,323.122528 
	C216.798050,323.335938 217.506104,323.549377 218.214157,323.762787 
	C218.153595,323.232422 218.093048,322.702057 217.485535,322.120941 
M207.843277,334.700287 
	C207.768417,335.419403 207.693558,336.138519 207.618713,336.857635 
	C208.039307,336.800079 208.459915,336.742554 208.880508,336.684998 
	C208.700394,335.959351 208.520264,335.233673 207.843277,334.700287 
M193.646118,324.996552 
	C193.872543,325.481445 194.098953,325.966339 194.325378,326.451233 
	C194.703369,326.084625 195.081345,325.718048 195.459320,325.351440 
	C194.978973,325.113434 194.498611,324.875427 193.646118,324.996552 
M112.494682,369.502838 
	C112.053726,369.198639 111.612770,368.894440 111.171799,368.590240 
	C111.031593,369.098358 110.891388,369.606445 110.751175,370.114563 
	C111.286545,370.076385 111.821907,370.038208 112.494682,369.502838 
M232.003265,301.645782 
	C231.518372,301.872192 231.033463,302.098602 230.548553,302.324982 
	C230.915131,302.702972 231.281693,303.080963 231.648270,303.458954 
	C231.886261,302.978638 232.124252,302.498322 232.003265,301.645782 
M202.752289,307.246155 
	C202.422928,306.839722 202.093567,306.433289 201.764191,306.026855 
	C201.596130,306.436646 201.428085,306.846466 201.260025,307.256226 
	C201.703857,307.404633 202.147675,307.553009 202.752289,307.246155 
M332.325073,304.409058 
	C332.474823,304.850616 332.624542,305.292175 332.774292,305.733765 
	C333.183075,305.565369 333.591858,305.396973 334.000641,305.228546 
	C333.594299,304.901764 333.187958,304.574951 332.325073,304.409058 
M237.160736,330.803070 
	C237.044693,331.218109 236.928650,331.633118 236.812592,332.048157 
	C237.227554,332.022308 237.642502,331.996490 238.057480,331.970673 
	C237.892746,331.527252 237.728027,331.083832 237.160736,330.803070 
M312.032104,289.703125 
	C312.121674,290.210907 312.191864,290.724396 312.337341,291.215607 
	C312.349060,291.255127 312.878693,291.141235 313.167603,291.098633 
	C312.936096,290.617706 312.704590,290.136780 312.032104,289.703125 
M253.866547,288.794312 
	C254.120346,289.049805 254.374146,289.305267 254.627945,289.560730 
	C254.799728,289.364380 254.971512,289.168030 255.143280,288.971680 
	C254.807709,288.816467 254.472122,288.661285 253.866547,288.794312 
M277.503357,265.404419 
	C277.322052,265.705536 277.140747,266.006653 276.959442,266.307770 
	C277.219788,266.382843 277.480164,266.457916 277.740479,266.532990 
	C277.788727,266.191223 277.836975,265.849487 277.503357,265.404419 
M267.851654,267.180023 
	C268.222290,267.251282 268.592957,267.322540 268.963623,267.393829 
	C268.971680,267.139191 268.979736,266.884552 268.987762,266.629913 
	C268.613586,266.683502 268.239441,266.737061 267.851654,267.180023 
M264.317535,270.908386 
	C264.111786,270.944946 263.906067,270.981506 263.700317,271.018066 
	C263.903015,271.067047 264.105743,271.116058 264.317535,270.908386 
M193.682510,307.091583 
	C193.888229,307.054993 194.093948,307.018433 194.299652,306.981842 
	C194.096939,306.932861 193.894241,306.883881 193.682510,307.091583 
M281.091553,275.317566 
	C281.054962,275.111786 281.018372,274.906006 280.981720,274.700226 
	C280.932739,274.902985 280.883759,275.105774 281.091553,275.317566 
M89.284393,352.164185 
	C89.114197,352.041809 88.944008,351.919434 88.773819,351.797058 
	C88.881424,351.976410 88.989021,352.155792 89.284393,352.164185 
M273.682526,315.091675 
	C273.888245,315.055084 274.093994,315.018494 274.299713,314.981903 
	C274.097015,314.932922 273.894318,314.883942 273.682526,315.091675 
M197.317642,315.908386 
	C197.111816,315.944977 196.906006,315.981567 196.700180,316.018158 
	C196.902985,316.067139 197.105789,316.116150 197.317642,315.908386 
M273.284424,274.164246 
	C273.114197,274.041840 272.944000,273.919464 272.773773,273.797058 
	C272.881439,273.976440 272.989075,274.155823 273.284424,274.164246 
M208.284470,343.164124 
	C208.114258,343.041748 207.944046,342.919373 207.773834,342.796967 
	C207.881470,342.976349 207.989090,343.155701 208.284470,343.164124 
M249.284485,271.164093 
	C249.114258,271.041718 248.944016,270.919312 248.773788,270.796936 
	C248.881424,270.976318 248.989059,271.155701 249.284485,271.164093 
M209.284576,324.164337 
	C209.114304,324.041870 208.944031,323.919434 208.773758,323.796997 
	C208.881424,323.976440 208.989075,324.155914 209.284576,324.164337 
M201.284485,267.164368 
	C201.114258,267.041962 200.944031,266.919525 200.773819,266.797089 
	C200.881454,266.976471 200.989075,267.155884 201.284485,267.164368 
M253.284363,280.164154 
	C253.114182,280.041779 252.944000,279.919373 252.773804,279.796967 
	C252.881409,279.976349 252.988998,280.155731 253.284363,280.164154 
M238.908493,301.682373 
	C238.945084,301.888153 238.981674,302.093903 239.018265,302.299683 
	C239.067245,302.096954 239.116226,301.894226 238.908493,301.682373 
M259.284454,298.164307 
	C259.114258,298.041901 258.944031,297.919525 258.773834,297.797119 
	C258.881439,297.976501 258.989075,298.155853 259.284454,298.164307 
M252.682526,297.091522 
	C252.888245,297.054932 253.093964,297.018372 253.299683,296.981812 
	C253.097000,296.932831 252.894302,296.883820 252.682526,297.091522 
M157.091599,294.317413 
	C157.055023,294.111694 157.018433,293.905945 156.981857,293.700226 
	C156.932877,293.902954 156.883881,294.105652 157.091599,294.317413 
M300.682404,293.091553 
	C300.888214,293.054993 301.094025,293.018463 301.299835,292.981903 
	C301.097046,292.932861 300.894257,292.883850 300.682404,293.091553 
M239.908691,289.682587 
	C239.945251,289.888275 239.981827,290.093933 240.018402,290.299622 
	C240.067383,290.096954 240.116348,289.894318 239.908691,289.682587 
M174.835754,281.284546 
	C174.958160,281.114288 175.080566,280.944031 175.202988,280.773804 
	C175.023605,280.881470 174.844223,280.989136 174.835754,281.284546 
M186.835770,289.284607 
	C186.958176,289.114380 187.080597,288.944153 187.202988,288.773926 
	C187.023590,288.881561 186.844177,288.989197 186.835770,289.284607 
M317.835815,288.284332 
	C317.958160,288.114136 318.080536,287.943939 318.202881,287.773712 
	C318.023529,287.881348 317.844177,287.988953 317.835815,288.284332 
M196.284454,288.164246 
	C196.114227,288.041840 195.943985,287.919403 195.773758,287.796997 
	C195.881378,287.976410 195.988983,288.155823 196.284454,288.164246 
M206.682465,285.091644 
	C206.888245,285.055054 207.094025,285.018463 207.299805,284.981873 
	C207.097046,284.932892 206.894302,284.883881 206.682465,285.091644 
M200.526794,414.500244 
	C200.526794,414.500244 200.486618,414.515015 200.526794,414.500244 
M164.499374,405.474243 
	C164.499374,405.474243 164.513443,405.513275 164.499374,405.474243 
M121.525879,399.499512 
	C121.525879,399.499512 121.486832,399.513519 121.525879,399.499512 
z"/>
<path fill="#F1EDEE" opacity="1.000000" stroke="none" 
	d="
M339.725403,87.331329 
	C339.841461,86.172066 339.954742,85.012520 340.073944,83.853592 
	C340.826904,76.532196 341.558441,75.959793 348.703339,76.678841 
	C350.167267,76.826164 351.675201,76.649841 353.152100,76.509659 
	C353.967682,76.432251 354.890747,75.745827 355.543976,75.972359 
	C361.308014,77.971291 367.067963,79.998352 372.739319,82.243858 
	C379.289917,84.837479 385.752167,87.654579 392.246277,90.390091 
	C393.567810,90.946754 395.146362,91.275742 396.119141,92.214577 
	C401.694244,97.595139 407.311188,102.954468 412.550873,108.654732 
	C418.613495,115.250229 423.902527,122.593941 430.259399,128.871613 
	C436.912140,135.441483 439.400726,144.107635 443.484344,151.954605 
	C444.944061,154.759613 444.955078,158.345840 445.493561,161.597626 
	C446.877136,169.953415 448.729156,178.280838 449.360901,186.697128 
	C449.915527,194.086197 449.068817,201.580460 448.363647,209.379181 
	C444.293121,209.283600 440.699951,208.837097 437.193359,207.963303 
	C437.453796,201.401703 438.357269,195.178833 437.625946,189.154388 
	C436.598450,180.689758 434.356781,172.372498 432.651184,163.589996 
	C428.594025,154.580673 424.519989,145.973572 420.367554,137.156616 
	C420.142792,136.663589 419.915070,136.483429 419.628723,136.398773 
	C419.651520,136.391296 419.675354,136.349457 419.543030,136.038086 
	C415.612579,131.317490 411.814484,126.908257 407.900635,122.202744 
	C407.052063,120.968811 406.319275,120.031143 405.389038,118.793152 
	C399.878540,114.121323 394.812164,109.399879 389.204468,105.446175 
	C374.380188,94.994324 357.520660,89.817017 339.725403,87.331329 
z"/>
<path fill="#F1EDEE" opacity="1.000000" stroke="none" 
	d="
M335.834381,121.854744 
	C337.502502,108.860771 338.057404,108.367966 350.705200,112.119614 
	C371.633850,118.327553 389.015411,129.961472 400.985352,148.296783 
	C405.994110,155.969101 408.214020,165.404007 412.552063,173.586838 
	C418.066833,183.989395 414.189331,194.731857 414.390503,205.655182 
	C410.308899,205.632553 406.730377,205.241135 403.065369,204.397354 
	C401.988220,194.630951 400.997589,185.316910 399.979492,175.636932 
	C396.656403,168.457657 393.360748,161.644302 389.982605,154.533844 
	C388.999786,153.213608 388.099487,152.190475 386.935120,150.941132 
	C384.116058,147.804718 381.561127,144.894547 378.841980,141.689972 
	C373.056305,137.477142 367.866943,132.565811 361.706970,129.884354 
	C353.477112,126.301903 344.493988,124.449905 335.834381,121.854744 
z"/>
<path fill="#F3F2F3" opacity="1.000000" stroke="none" 
	d="
M187.187439,419.404633 
	C190.709335,419.248535 194.231232,419.092468 197.324173,418.955383 
	C198.510529,419.904663 199.573608,420.876587 200.753571,421.675934 
	C203.843674,423.769165 206.755493,426.750824 210.170227,427.563324 
	C213.567291,428.371552 217.954300,427.891052 221.071548,426.318817 
	C225.556885,424.056427 229.286209,420.295166 233.697388,417.392639 
	C235.371475,418.074402 236.686386,418.537201 238.115036,419.084717 
	C238.228790,419.169434 238.635071,419.208496 238.635071,419.208496 
	C238.635071,419.208496 238.996323,419.000061 239.150284,418.757568 
	C239.869583,418.009247 240.434937,417.503418 241.000275,416.997559 
	C244.093445,415.688965 247.186630,414.380402 250.991959,412.984985 
	C256.345795,410.801331 252.517960,408.337006 252.002747,406.016449 
	C256.300720,405.587708 258.997284,407.335785 261.215851,411.213776 
	C262.970123,414.280121 266.136932,416.538361 268.441895,419.674744 
	C258.106384,428.321716 248.005417,436.449402 237.581436,444.397461 
	C220.568085,435.946747 203.877762,427.675690 187.187439,419.404633 
z"/>
<path fill="#F1ECED" opacity="1.000000" stroke="none" 
	d="
M332.079498,156.700531 
	C332.458191,152.816483 331.630066,148.483765 335.699646,145.889114 
	C340.138550,143.058975 344.253723,143.629303 348.471741,147.248032 
	C350.980347,149.400192 353.476624,151.713196 356.349182,153.269653 
	C369.398254,160.340179 375.760376,172.044449 378.835632,185.806000 
	C379.977173,190.914352 379.676331,196.345047 379.466064,201.934082 
	C375.289154,201.815857 371.679504,201.392303 368.085297,200.507233 
	C367.685944,195.291809 367.523987,190.493942 366.709381,185.809586 
	C366.449219,184.313690 364.458313,183.118759 363.259308,181.786118 
	C360.906372,178.106766 358.553436,174.427414 356.112640,170.106018 
	C350.470184,160.655930 341.502808,158.250534 332.079498,156.700531 
z"/>
<path fill="#655155" opacity="1.000000" stroke="none" 
	d="
M233.913361,341.839905 
	C252.030289,336.059540 269.973816,329.642517 288.305359,324.650238 
	C314.806091,317.433197 341.948639,313.460175 369.359650,311.605133 
	C375.421204,311.194916 381.710449,312.815796 387.648315,308.990509 
	C385.755585,314.043945 381.109222,314.848206 376.404480,314.919006 
	C339.469238,315.475067 303.642761,322.761719 268.301208,332.798889 
	C256.963257,336.018890 245.868179,340.094025 234.299835,343.475861 
	C233.929596,342.729156 233.921478,342.284546 233.913361,341.839905 
z"/>
<path fill="#544549" opacity="1.000000" stroke="none" 
	d="
M186.861511,419.335510 
	C203.877762,427.675690 220.568085,435.946747 237.606216,444.686981 
	C238.069000,445.526581 238.183960,445.897034 238.298920,446.267456 
	C236.342178,446.115417 234.113113,446.525116 232.469025,445.728119 
	C201.456619,430.694489 170.513931,415.517090 139.551758,400.379761 
	C138.958221,400.089600 138.304703,399.922180 137.321854,399.361572 
	C136.932800,398.646393 136.901077,398.267151 136.869339,397.887878 
	C138.925568,397.916351 141.298492,397.276855 142.988327,398.078094 
	C157.573898,404.993622 172.036392,412.168701 186.861511,419.335510 
z"/>
<path fill="#56484C" opacity="1.000000" stroke="none" 
	d="
M339.639709,87.628143 
	C357.520660,89.817017 374.380188,94.994324 389.204468,105.446175 
	C394.812164,109.399879 399.878540,114.121323 404.986816,119.010330 
	C404.521332,119.685234 404.260681,119.842613 403.622589,120.025688 
	C402.993378,120.065437 402.741608,120.079491 402.489807,120.093544 
	C402.489807,120.093544 402.202698,120.023788 401.974091,119.751152 
	C401.550293,119.279922 401.331512,119.112068 401.089111,118.974960 
	C386.104431,105.694099 368.903534,96.753876 349.281769,92.588577 
	C347.009521,92.106224 344.553650,92.204971 342.437317,91.380928 
	C341.213257,90.904320 340.498169,89.120468 339.639709,87.628143 
z"/>
<path fill="#56484C" opacity="1.000000" stroke="none" 
	d="
M335.754944,122.181007 
	C344.493988,124.449905 353.477112,126.301903 361.706970,129.884354 
	C367.866943,132.565811 373.056305,137.477142 378.831055,142.077744 
	C378.983765,143.788498 378.983276,144.817093 378.982758,145.845703 
	C367.448364,135.634735 354.412872,128.452271 338.996948,126.133293 
	C336.802032,125.803123 334.971405,125.380302 335.754944,122.181007 
z"/>
<path fill="#6F595D" opacity="1.000000" stroke="none" 
	d="
M233.593140,341.857239 
	C233.921478,342.284546 233.929596,342.729156 233.931885,343.507629 
	C221.580276,349.517334 209.224854,355.172363 196.900330,360.893951 
	C195.259949,361.655457 193.776596,362.755188 191.944305,363.943420 
	C190.861618,363.765472 190.055161,363.342346 188.474274,362.512970 
	C193.513336,359.804779 197.846756,357.475830 202.309357,354.789795 
	C202.438522,354.432709 202.506943,354.428558 202.506943,354.428558 
	C210.023300,351.256805 217.532623,348.068237 225.060272,344.923523 
	C227.331726,343.974579 229.654007,343.147400 232.340668,342.204041 
	C232.728333,342.143616 232.700958,342.164856 232.700958,342.164856 
	C232.891617,342.068115 233.082260,341.971375 233.593140,341.857239 
z"/>
<path fill="#544549" opacity="1.000000" stroke="none" 
	d="
M97.086060,387.756592 
	C98.511543,388.787018 100.010719,389.730225 101.350410,390.862183 
	C109.423050,397.683197 117.996605,403.334412 129.685120,403.430725 
	C130.284927,403.935303 130.355667,404.171661 130.426407,404.408051 
	C126.255035,408.370453 121.463814,406.996216 117.549370,404.769348 
	C110.592964,400.812012 104.152519,395.947662 97.262100,390.820801 
	C97.047333,389.371429 97.066689,388.564026 97.086060,387.756592 
z"/>
<path fill="#978587" opacity="1.000000" stroke="none" 
	d="
M432.634369,163.992218 
	C434.356781,172.372498 436.598450,180.689758 437.625946,189.154388 
	C438.357269,195.178833 437.453796,201.401703 437.192352,208.128204 
	C436.984314,208.914413 436.849945,209.098358 436.701721,209.272186 
	C436.183563,200.000000 436.181610,190.659637 434.969513,181.479080 
	C434.132416,175.138535 431.622711,169.018814 430.123810,162.622894 
	C431.136230,162.960999 431.885284,163.476608 432.634369,163.992218 
z"/>
<path fill="#56484C" opacity="1.000000" stroke="none" 
	d="
M332.010101,157.022095 
	C341.502808,158.250534 350.470184,160.655930 355.932251,169.829361 
	C354.507812,169.683533 353.138580,169.251984 351.850586,168.647278 
	C346.363953,166.071213 340.850891,163.542007 335.464630,160.768158 
	C334.071564,160.050766 333.103821,158.507538 332.010101,157.022095 
z"/>
<path fill="#896B6C" opacity="1.000000" stroke="none" 
	d="
M238.608582,446.143982 
	C238.183960,445.897034 238.069000,445.526581 237.929245,444.866638 
	C248.005417,436.449402 258.106384,428.321716 268.564575,420.026398 
	C268.107208,421.154755 267.557312,422.771667 266.436310,423.696106 
	C257.324066,431.210846 248.104858,438.595917 238.608582,446.143982 
z"/>
<path fill="#786A6D" opacity="1.000000" stroke="none" 
	d="
M432.651184,163.589996 
	C431.885284,163.476608 431.136230,162.960999 430.118835,162.232513 
	C429.850525,162.019638 429.926056,162.018768 429.883453,161.760254 
	C429.537292,160.996490 429.233734,160.491272 428.930176,159.986053 
	C428.930176,159.986053 428.994934,160.005066 428.938477,159.740219 
	C428.572235,158.977478 428.262482,158.479584 427.952728,157.981689 
	C427.952728,157.981689 428.011597,157.997452 428.001038,157.665924 
	C427.309387,155.889709 426.628296,154.445023 425.947205,153.000320 
	C425.947205,153.000320 426.002563,152.999847 425.933289,152.713989 
	C425.457947,151.971771 425.051880,151.515381 424.645813,151.058990 
	C422.705353,147.404739 420.764893,143.750473 418.820801,139.646912 
	C418.817139,139.197617 419.017090,138.971497 419.281799,138.729431 
	C419.846344,138.113739 420.146149,137.740112 420.445953,137.366486 
	C424.519989,145.973572 428.594025,154.580673 432.651184,163.589996 
z"/>
<path fill="#978587" opacity="1.000000" stroke="none" 
	d="
M400.006958,176.002853 
	C400.997589,185.316910 401.988220,194.630951 402.799316,204.535477 
	C402.432983,205.196960 402.246155,205.267975 402.059326,205.338989 
	C400.779022,196.118881 399.498749,186.898773 398.413635,177.188263 
	C399.074890,176.466202 399.540955,176.234528 400.006958,176.002853 
z"/>
<path fill="#786A6D" opacity="1.000000" stroke="none" 
	d="
M399.979492,175.636932 
	C399.540955,176.234528 399.074890,176.466202 398.371002,176.803009 
	C397.742798,175.983887 397.352448,175.059601 396.900513,173.480682 
	C396.528809,172.209442 396.218689,171.592865 395.908569,170.976288 
	C395.908569,170.976288 395.993256,171.008408 395.923340,170.736465 
	C395.556824,169.900787 395.260284,169.337036 394.963745,168.773285 
	C392.701782,165.010925 390.439819,161.248550 388.356812,157.094391 
	C389.045532,156.078720 389.555328,155.454819 390.065125,154.830933 
	C393.360748,161.644302 396.656403,168.457657 399.979492,175.636932 
z"/>
<path fill="#786A6D" opacity="1.000000" stroke="none" 
	d="
M83.968163,363.997742 
	C87.350014,370.416901 90.731865,376.835999 93.814224,383.679565 
	C92.992035,384.421356 92.469345,384.738678 91.946655,385.056030 
	C89.706596,381.038422 87.466537,377.020844 85.072746,372.519409 
	C84.848724,371.798981 84.776611,371.562866 84.702667,371.327301 
	C83.850784,369.144745 82.998909,366.962189 82.437134,364.395081 
	C83.140884,364.006287 83.554527,364.002014 83.968163,363.997742 
z"/>
<path fill="#5F565A" opacity="1.000000" stroke="none" 
	d="
M408.016388,122.499023 
	C411.814484,126.908257 415.612579,131.317490 419.099731,136.168152 
	C418.187866,136.735138 417.586914,136.860718 416.985962,136.986298 
	C416.985962,136.986298 417.021576,136.984528 416.916443,136.804871 
	C416.646362,136.375336 416.444733,136.159775 416.206421,135.978531 
	C416.206421,135.978531 416.008148,135.716736 415.862457,135.309570 
	C415.292328,134.598465 414.867920,134.294510 414.443481,133.990570 
	C411.374542,130.518814 408.305603,127.047066 405.646118,123.208176 
	C406.709167,122.727028 407.362793,122.613022 408.016388,122.499023 
z"/>
<path fill="#655155" opacity="1.000000" stroke="none" 
	d="
M436.608704,209.592651 
	C436.849945,209.098358 436.984314,208.914413 437.105835,208.555481 
	C440.699951,208.837097 444.293121,209.283600 448.254333,209.814270 
	C446.617035,213.883286 439.401764,213.892029 436.608704,209.592651 
z"/>
<path fill="#56484C" opacity="1.000000" stroke="none" 
	d="
M368.069824,200.968750 
	C371.679504,201.392303 375.289154,201.815857 379.314514,202.306793 
	C377.323761,206.532425 369.769073,206.470612 367.511292,201.807892 
	C367.746216,201.343536 368.069824,200.968765 368.069824,200.968750 
z"/>
<path fill="#655155" opacity="1.000000" stroke="none" 
	d="
M402.011932,205.708618 
	C402.246155,205.267975 402.432983,205.196960 402.885834,204.987823 
	C406.730377,205.241135 410.308899,205.632553 414.270142,206.122345 
	C411.658661,210.263596 404.625519,210.184616 402.011932,205.708618 
z"/>
<path fill="#978587" opacity="1.000000" stroke="none" 
	d="
M368.085297,200.507233 
	C368.069824,200.968765 367.746216,201.343536 367.526550,201.459991 
	C366.064880,195.221771 364.822876,188.867081 363.420105,182.149261 
	C364.458313,183.118759 366.449219,184.313690 366.709381,185.809586 
	C367.523987,190.493942 367.685944,195.291809 368.085297,200.507233 
z"/>
<path fill="#978587" opacity="1.000000" stroke="none" 
	d="
M83.986366,363.593719 
	C83.554527,364.002014 83.140884,364.006287 82.417252,364.016968 
	C81.811745,359.268463 81.516228,354.513550 81.450241,349.534424 
	C82.454704,353.936707 83.229637,358.563202 83.986366,363.593719 
z"/>
<path fill="#5F565A" opacity="1.000000" stroke="none" 
	d="
M379.061707,146.179245 
	C378.983276,144.817093 378.983765,143.788498 378.995209,142.372131 
	C381.561127,144.894547 384.116058,147.804718 386.618469,151.159286 
	C386.359558,151.754990 386.153198,151.906326 385.624512,152.073593 
	C385.087738,152.106033 384.873230,152.122543 384.658691,152.139053 
	C382.819336,150.263626 380.979980,148.388199 379.061707,146.179245 
z"/>
<path fill="#F2EEEF" opacity="1.000000" stroke="none" 
	d="
M251.930389,405.871704 
	C252.517960,408.337006 256.345795,410.801331 251.350983,412.944183 
	C251.000671,410.743683 251.003510,408.497131 251.271454,405.969940 
	C251.536560,405.689301 251.858047,405.726929 251.930389,405.871704 
z"/>
<path fill="#5F565A" opacity="1.000000" stroke="none" 
	d="
M92.056412,385.369904 
	C92.469345,384.738678 92.992035,384.421356 93.817009,384.034760 
	C95.053215,385.033722 95.987137,386.101959 97.003555,387.463379 
	C97.066689,388.564026 97.047333,389.371429 97.032669,390.583069 
	C95.413628,389.219421 93.789894,387.451599 92.056412,385.369904 
z"/>
<path fill="#896B6C" opacity="1.000000" stroke="none" 
	d="
M130.730621,404.279846 
	C130.355667,404.171661 130.284927,403.935303 130.123260,403.340088 
	C132.093506,401.329102 134.154678,399.677002 136.542603,397.956390 
	C136.901077,398.267151 136.932800,398.646393 136.943390,399.312561 
	C134.959763,401.116821 132.997284,402.634247 130.730621,404.279846 
z"/>
<path fill="#5F565A" opacity="1.000000" stroke="none" 
	d="
M389.982605,154.533844 
	C389.555328,155.454819 389.045532,156.078720 388.223206,156.764709 
	C387.389709,156.082260 386.868713,155.337692 386.224121,153.987000 
	C386.049286,152.939789 385.998077,152.498734 385.946838,152.057663 
	C386.153198,151.906326 386.359558,151.754990 386.882538,151.385498 
	C388.099487,152.190475 388.999786,153.213608 389.982605,154.533844 
z"/>
<path fill="#56484C" opacity="1.000000" stroke="none" 
	d="
M407.900635,122.202744 
	C407.362793,122.613022 406.709167,122.727028 405.559753,122.879898 
	C404.785339,122.738144 404.541687,122.518723 404.194763,121.741501 
	C404.037689,120.814995 404.018829,120.407501 404.000000,120.000000 
	C404.260681,119.842613 404.521332,119.685234 405.184204,119.310669 
	C406.319275,120.031143 407.052063,120.968811 407.900635,122.202744 
z"/>
<path fill="#978587" opacity="1.000000" stroke="none" 
	d="
M425.929474,153.354202 
	C426.628296,154.445023 427.309387,155.889709 427.985596,157.692200 
	C427.291077,156.602676 426.601410,155.155380 425.929474,153.354202 
z"/>
<path fill="#F2EEEF" opacity="1.000000" stroke="none" 
	d="
M104.588333,328.732727 
	C104.381432,329.165131 103.880722,329.660645 103.165070,330.023438 
	C103.398262,329.525787 103.846390,329.160828 104.588333,328.732727 
z"/>
<path fill="#786A6D" opacity="1.000000" stroke="none" 
	d="
M417.057495,137.279144 
	C417.586914,136.860718 418.187866,136.735138 419.232086,136.479507 
	C419.675354,136.349457 419.651520,136.391296 419.482727,136.818665 
	C419.214996,137.821198 419.116058,138.396347 419.017090,138.971497 
	C419.017090,138.971497 418.817139,139.197617 418.715912,139.310638 
	C418.119476,138.806458 417.624268,138.189224 417.057495,137.279144 
z"/>
<path fill="#F2EEEF" opacity="1.000000" stroke="none" 
	d="
M223.925903,386.692200 
	C223.552338,386.636353 222.998718,386.309937 222.257446,385.713531 
	C222.628464,385.769592 223.187149,386.095642 223.925903,386.692200 
z"/>
<path fill="#978587" opacity="1.000000" stroke="none" 
	d="
M428.924133,160.302475 
	C429.233734,160.491272 429.537292,160.996490 429.890198,161.797394 
	C429.599091,161.601685 429.258575,161.110306 428.924133,160.302475 
z"/>
<path fill="#978587" opacity="1.000000" stroke="none" 
	d="
M427.961670,158.290955 
	C428.262482,158.479584 428.572235,158.977478 428.925476,159.771362 
	C428.636169,159.578293 428.303375,159.089249 427.961670,158.290955 
z"/>
<path fill="#978587" opacity="1.000000" stroke="none" 
	d="
M394.992493,169.103638 
	C395.260284,169.337036 395.556824,169.900787 395.907166,170.778763 
	C395.647675,170.539993 395.334442,169.986984 394.992493,169.103638 
z"/>
<path fill="#5F565A" opacity="1.000000" stroke="none" 
	d="
M403.622589,120.025688 
	C404.018829,120.407501 404.037689,120.814995 404.068848,121.528595 
	C403.643372,121.434082 403.205566,121.033470 402.628784,120.363197 
	C402.741608,120.079491 402.993378,120.065437 403.622589,120.025688 
z"/>
<path fill="#978587" opacity="1.000000" stroke="none" 
	d="
M395.923340,171.331253 
	C396.218689,171.592865 396.528809,172.209442 396.890320,173.177155 
	C396.607178,172.914261 396.272675,172.300232 395.923340,171.331253 
z"/>
<path fill="#978587" opacity="1.000000" stroke="none" 
	d="
M424.753265,151.351761 
	C425.051880,151.515381 425.457947,151.971771 425.918335,152.737274 
	C425.602020,152.579117 425.231384,152.111816 424.753265,151.351761 
z"/>
<path fill="#786A6D" opacity="1.000000" stroke="none" 
	d="
M414.596161,134.198395 
	C414.867920,134.294510 415.292328,134.598465 415.834900,135.147690 
	C415.551636,135.064056 415.150238,134.735138 414.596161,134.198395 
z"/>
<path fill="#786A6D" opacity="1.000000" stroke="none" 
	d="
M385.624512,152.073593 
	C385.998077,152.498734 386.049286,152.939789 386.146057,153.715179 
	C385.773773,153.595993 385.355957,153.142487 384.798431,152.414001 
	C384.873230,152.122543 385.087738,152.106033 385.624512,152.073593 
z"/>
<path fill="#978587" opacity="1.000000" stroke="none" 
	d="
M84.665794,371.457703 
	C84.776611,371.562866 84.848724,371.798981 84.950058,372.147278 
	C84.753807,372.097473 84.636414,371.873871 84.665794,371.457703 
z"/>
<path fill="#5F565A" opacity="1.000000" stroke="none" 
	d="
M401.183441,119.171417 
	C401.331512,119.112068 401.550293,119.279922 401.881531,119.635986 
	C401.708710,119.759842 401.462097,119.617981 401.183441,119.171417 
z"/>
<path fill="#786A6D" opacity="1.000000" stroke="none" 
	d="
M416.268127,136.201721 
	C416.444733,136.159775 416.646362,136.375336 416.913513,136.822449 
	C416.709442,136.910980 416.480804,136.712723 416.268127,136.201721 
z"/>
<path fill="#655155" opacity="1.000000" stroke="none" 
	d="
M388.243439,308.929565 
	C388.166107,308.689484 388.392975,308.347076 388.914337,307.868225 
	C388.988434,308.096924 388.768036,308.462067 388.243439,308.929565 
z"/>
<path fill="#FE3333" opacity="1.000000" stroke="none" 
	d="
M294.707977,241.006104 
	C288.722839,232.477509 283.811218,222.870010 276.539429,215.634552 
	C258.893799,198.077179 249.983017,175.779129 240.622726,153.695297 
	C237.822296,147.088196 237.070557,139.561264 235.825455,132.378571 
	C235.463623,130.291275 236.644638,127.936531 237.788803,125.430786 
	C244.207413,126.421906 250.694366,126.403893 255.557877,129.204803 
	C267.572510,136.124039 278.843079,144.335205 290.455872,152.171997 
	C290.610138,152.504303 290.773468,152.613968 291.357391,152.994141 
	C292.830811,153.215561 293.935913,153.088654 295.041016,152.961746 
	C295.041016,152.961746 295.039948,152.992020 294.621399,153.179901 
	C294.997803,154.831726 295.526215,156.545746 296.628906,157.720917 
	C307.683899,169.502441 318.833221,181.195389 330.049133,193.243225 
	C337.480133,203.581238 345.050568,213.429535 352.074005,223.653610 
	C356.738373,230.443619 360.620544,237.770950 364.840576,245.226227 
	C365.503326,246.843399 366.178284,248.092133 366.878052,249.509735 
	C366.902893,249.678589 367.101074,249.956528 367.130066,250.206665 
	C367.415588,250.643661 367.672089,250.830505 367.918884,251.041168 
	C367.909180,251.064987 367.956268,251.085663 367.982666,251.439667 
	C371.266144,259.239380 374.523254,266.685089 377.883606,274.418060 
	C378.272736,275.241516 378.558655,275.777710 378.875549,276.693115 
	C379.120880,277.798950 379.335205,278.525604 379.557953,279.486420 
	C379.609314,280.046875 379.749695,280.323944 380.032288,280.886597 
	C380.613464,281.423798 381.149811,281.626160 381.686127,281.828522 
	C381.686127,281.828522 381.876984,281.600098 381.370667,281.671600 
	C380.882019,282.803802 380.899719,283.864532 380.951355,285.353607 
	C381.375244,289.456299 381.765198,293.130585 382.155151,296.804901 
	C380.582794,300.938690 377.138306,301.611633 373.559906,300.721832 
	C363.540710,298.230438 353.867493,294.920227 345.928955,287.812103 
	C342.748016,284.963928 339.151550,282.579803 335.238770,279.653229 
	C334.198517,279.092010 333.663757,278.862030 333.128998,278.632050 
	C332.007141,277.704102 330.885315,276.776123 329.348450,275.477448 
	C328.290100,274.734406 327.646790,274.362061 327.003479,273.989716 
	C325.223938,272.369965 323.444397,270.750214 321.273163,268.697418 
	C319.685974,267.132568 318.490509,266.000763 317.295013,264.868958 
	C310.120605,257.229065 302.946198,249.589203 295.414185,241.589661 
	C295.056610,241.229996 294.707977,241.006104 294.707977,241.006104 
M291.793976,209.592560 
	C292.239197,210.044220 292.684387,210.495865 293.057709,210.947235 
	C293.057709,210.947235 293.095886,210.886322 292.729248,211.587646 
	C294.641022,214.792969 296.552795,217.998306 298.788971,221.831924 
	C302.779541,225.780060 306.391113,230.237854 310.851166,233.554718 
	C317.248779,238.312546 323.405609,236.475403 327.821533,228.793518 
	C328.539368,226.616089 330.068268,224.350372 329.842407,222.275650 
	C328.454956,209.529770 324.680389,198.053833 312.266174,191.424194 
	C303.306030,186.639145 295.715637,188.513550 289.951752,197.768555 
	C290.008728,200.512970 290.065674,203.257370 290.232117,206.825912 
	C290.441803,207.337982 290.651489,207.850052 290.767578,208.462433 
	C290.767578,208.462433 290.909637,208.654938 291.458588,209.055908 
	C291.682037,209.018326 291.905487,208.980728 292.058136,209.009491 
	C292.058136,209.009491 292.101166,208.922623 291.793976,209.592560 
z"/>
<path fill="#786A6D" opacity="1.000000" stroke="none" 
	d="
M367.101074,249.956528 
	C367.101074,249.956528 366.902893,249.678589 366.858032,249.147217 
	C366.159698,247.363159 365.506256,246.110474 364.852844,244.857773 
	C360.620544,237.770950 356.738373,230.443619 352.074005,223.653610 
	C345.050568,213.429535 337.480133,203.581238 330.379120,193.251434 
	C331.407990,192.628220 332.200012,192.326752 332.992004,192.025284 
	C342.571472,206.021790 352.306091,219.915894 361.646973,234.069855 
	C364.959229,239.088806 367.312805,244.740463 369.929382,250.611008 
	C369.155243,251.107712 368.555756,251.096680 367.956268,251.085663 
	C367.956268,251.085663 367.909180,251.064987 367.811798,250.841888 
	C367.547943,250.362854 367.343475,250.142105 367.101074,249.956528 
z"/>
<path fill="#56484C" opacity="1.000000" stroke="none" 
	d="
M290.412720,152.027130 
	C278.843079,144.335205 267.572510,136.124039 255.557877,129.204803 
	C250.694366,126.403893 244.207413,126.421906 237.985992,125.117218 
	C240.112946,119.818138 245.063461,121.386475 248.320312,122.745468 
	C256.566986,126.186584 264.564148,130.388672 272.236511,134.993576 
	C278.846924,138.961090 284.906464,143.857361 291.128906,148.452194 
	C292.554688,149.505035 293.649780,151.005692 294.969055,152.631012 
	C293.935913,153.088654 292.830811,153.215561 291.272125,152.880432 
	C290.698730,152.271927 290.563446,152.141495 290.412720,152.027130 
z"/>
<path fill="#5F565A" opacity="1.000000" stroke="none" 
	d="
M332.847412,191.721466 
	C332.200012,192.326752 331.407990,192.628220 330.286011,192.921478 
	C318.833221,181.195389 307.683899,169.502441 296.628906,157.720917 
	C295.526215,156.545746 294.997803,154.831726 294.633606,153.169067 
	C298.144165,155.356491 301.602966,157.386978 304.236023,160.192444 
	C313.873749,170.461227 323.236511,180.988037 332.847412,191.721466 
z"/>
<path fill="#896B6C" opacity="1.000000" stroke="none" 
	d="
M367.982666,251.439651 
	C368.555756,251.096680 369.155243,251.107712 369.946777,250.993225 
	C373.320343,258.215515 376.501831,265.563293 379.177673,273.411255 
	C378.374817,273.984589 378.077576,274.057709 377.780365,274.130829 
	C374.523254,266.685089 371.266144,259.239380 367.982666,251.439651 
z"/>
<path fill="#F2EEEF" opacity="1.000000" stroke="none" 
	d="
M246.399017,402.479980 
	C245.149246,408.461853 242.958481,409.930756 238.536301,407.604584 
	C237.883423,407.261108 237.619110,406.178925 237.671371,406.266083 
	C240.576981,405.016693 243.142563,403.913544 246.039154,402.618530 
	C246.370178,402.426636 246.367416,402.493317 246.399017,402.479980 
z"/>
<path fill="#F2EEEF" opacity="1.000000" stroke="none" 
	d="
M317.001129,265.064270 
	C318.490509,266.000763 319.685974,267.132568 320.969543,268.564270 
	C319.908936,269.760773 318.760315,270.657349 317.409454,271.711761 
	C315.362946,269.492645 314.225006,267.586945 317.001129,265.064270 
z"/>
<path fill="#F2EEEF" opacity="1.000000" stroke="none" 
	d="
M266.839081,324.230316 
	C267.319977,325.367981 267.453125,326.463379 267.586273,327.558777 
	C266.679474,327.427490 265.772705,327.296204 264.865906,327.164917 
	C265.407715,326.172607 265.949524,325.180328 266.839081,324.230316 
z"/>
<path fill="#F2EEEF" opacity="1.000000" stroke="none" 
	d="
M238.001282,419.000000 
	C236.686386,418.537201 235.371475,418.074402 234.028900,417.305786 
	C235.123596,416.759613 236.245972,416.519226 237.800095,416.224304 
	C238.231827,416.169769 238.637543,416.207764 238.637543,416.207764 
	C238.637543,416.207764 238.998962,416.001221 238.998962,416.001221 
	C239.620163,416.175354 240.241379,416.349518 240.931427,416.760620 
	C240.434937,417.503418 239.869583,418.009247 238.901550,418.757568 
	C238.498840,419.000000 238.001282,419.000000 238.001282,419.000000 
z"/>
<path fill="#978587" opacity="1.000000" stroke="none" 
	d="
M382.385620,296.496155 
	C381.765198,293.130585 381.375244,289.456299 381.327881,285.346069 
	C381.921265,284.904572 382.171997,284.899017 382.422760,284.893433 
	C382.487213,288.658081 382.551636,292.422729 382.385620,296.496155 
z"/>
<path fill="#F2EEEF" opacity="1.000000" stroke="none" 
	d="
M294.387817,241.047638 
	C294.707977,241.006104 295.056610,241.229996 295.110535,241.430054 
	C294.369995,242.711868 293.575562,243.793625 292.781128,244.875381 
	C292.325287,244.515152 291.869446,244.154938 291.413605,243.794724 
	C292.298309,242.892883 293.182983,241.991028 294.387817,241.047638 
z"/>
<path fill="#F2EEEF" opacity="1.000000" stroke="none" 
	d="
M303.418396,308.433289 
	C304.232239,308.320465 304.943359,308.483032 305.654419,308.645630 
	C305.432465,309.192749 305.210480,309.739868 304.988525,310.286987 
	C304.430878,309.760925 303.873230,309.234833 303.418396,308.433289 
z"/>
<path fill="#F2EEEF" opacity="1.000000" stroke="none" 
	d="
M246.549744,317.908203 
	C247.243790,318.304474 247.689621,318.836456 248.135468,319.368408 
	C247.477432,319.720459 246.819412,320.072479 246.161377,320.424530 
	C246.208099,319.630981 246.254822,318.837433 246.549744,317.908203 
z"/>
<path fill="#F2EEEF" opacity="1.000000" stroke="none" 
	d="
M200.738220,322.942535 
	C201.525253,323.238373 202.102585,323.739899 202.679932,324.241425 
	C202.257904,324.629089 201.835876,325.016785 201.413849,325.404449 
	C201.118729,324.652374 200.823608,323.900299 200.738220,322.942535 
z"/>
<path fill="#F2EEEF" opacity="1.000000" stroke="none" 
	d="
M281.291870,255.908997 
	C281.316315,256.791504 281.145081,257.473633 280.973877,258.155731 
	C280.484680,257.844421 279.995514,257.533142 279.506287,257.221802 
	C280.036285,256.717407 280.566254,256.212982 281.291870,255.908997 
z"/>
<path fill="#F2EEEF" opacity="1.000000" stroke="none" 
	d="
M237.421631,399.629822 
	C237.112137,400.395142 236.687943,400.905151 236.263748,401.415192 
	C235.975159,400.768494 235.686569,400.121765 235.397980,399.475067 
	C236.034286,399.441528 236.670624,399.408020 237.421631,399.629822 
z"/>
<path fill="#F2EEEF" opacity="1.000000" stroke="none" 
	d="
M221.106506,274.171082 
	C221.142258,275.045380 220.977707,275.718903 220.813156,276.392426 
	C220.326904,276.093292 219.840652,275.794159 219.354401,275.495056 
	C219.871674,274.986786 220.388947,274.478546 221.106506,274.171082 
z"/>
<path fill="#F2EEEF" opacity="1.000000" stroke="none" 
	d="
M246.329910,251.106445 
	C245.657227,250.930466 245.165695,250.563065 244.674133,250.195679 
	C245.092148,249.777512 245.510162,249.359360 245.928192,248.941193 
	C246.122482,249.599152 246.316772,250.257095 246.329910,251.106445 
z"/>
<path fill="#896B6C" opacity="1.000000" stroke="none" 
	d="
M379.549530,279.252258 
	C379.335205,278.525604 379.120880,277.798950 379.046875,276.018921 
	C379.306946,274.517731 379.426697,274.069916 379.546448,273.622131 
	C380.292419,276.061615 381.038391,278.501068 381.735229,281.384521 
	C381.149811,281.626160 380.613464,281.423798 379.964844,280.665649 
	C379.758972,279.821381 379.657959,279.535522 379.549530,279.252258 
z"/>
<path fill="#F2EEEF" opacity="1.000000" stroke="none" 
	d="
M186.310669,306.504272 
	C185.937744,307.225098 185.463806,307.705048 184.989883,308.185028 
	C184.772095,307.643738 184.554291,307.102478 184.336487,306.561218 
	C184.960876,306.461945 185.585266,306.362671 186.310669,306.504272 
z"/>
<path fill="#F2EEEF" opacity="1.000000" stroke="none" 
	d="
M217.759003,322.146301 
	C218.093048,322.702057 218.153595,323.232422 218.214157,323.762787 
	C217.506104,323.549377 216.798050,323.335938 216.089996,323.122528 
	C216.555176,322.788666 217.020355,322.454803 217.759003,322.146301 
z"/>
<path fill="#F2EEEF" opacity="1.000000" stroke="none" 
	d="
M208.091705,334.604156 
	C208.520264,335.233673 208.700394,335.959351 208.880508,336.684998 
	C208.459915,336.742554 208.039307,336.800079 207.618713,336.857635 
	C207.693558,336.138519 207.768417,335.419403 208.091705,334.604156 
z"/>
<path fill="#F2EEEF" opacity="1.000000" stroke="none" 
	d="
M193.832184,324.817017 
	C194.498611,324.875427 194.978973,325.113434 195.459320,325.351440 
	C195.081345,325.718048 194.703369,326.084625 194.325378,326.451233 
	C194.098953,325.966339 193.872543,325.481445 193.832184,324.817017 
z"/>
<path fill="#F2EEEF" opacity="1.000000" stroke="none" 
	d="
M112.425980,369.751434 
	C111.821907,370.038208 111.286545,370.076385 110.751175,370.114563 
	C110.891388,369.606445 111.031593,369.098358 111.171799,368.590240 
	C111.612770,368.894440 112.053726,369.198639 112.425980,369.751434 
z"/>
<path fill="#F2EEEF" opacity="1.000000" stroke="none" 
	d="
M232.182770,301.831909 
	C232.124252,302.498322 231.886261,302.978638 231.648270,303.458954 
	C231.281693,303.080963 230.915131,302.702972 230.548553,302.324982 
	C231.033463,302.098602 231.518372,301.872192 232.182770,301.831909 
z"/>
<path fill="#F2EEEF" opacity="1.000000" stroke="none" 
	d="
M202.671890,307.473755 
	C202.147675,307.553009 201.703857,307.404633 201.260025,307.256226 
	C201.428085,306.846466 201.596130,306.436646 201.764191,306.026855 
	C202.093567,306.433289 202.422928,306.839722 202.671890,307.473755 
z"/>
<path fill="#F2EEEF" opacity="1.000000" stroke="none" 
	d="
M332.553345,304.328613 
	C333.187958,304.574951 333.594299,304.901764 334.000641,305.228577 
	C333.591858,305.396973 333.183075,305.565369 332.774292,305.733765 
	C332.624542,305.292175 332.474823,304.850616 332.553345,304.328613 
z"/>
<path fill="#F2EEEF" opacity="1.000000" stroke="none" 
	d="
M237.362030,330.721741 
	C237.728027,331.083832 237.892746,331.527252 238.057465,331.970673 
	C237.642502,331.996490 237.227554,332.022308 236.812592,332.048157 
	C236.928650,331.633118 237.044693,331.218109 237.362030,330.721741 
z"/>
<path fill="#F2EEEF" opacity="1.000000" stroke="none" 
	d="
M312.252594,289.679504 
	C312.704590,290.136780 312.936096,290.617706 313.167603,291.098633 
	C312.878693,291.141235 312.349060,291.255127 312.337341,291.215607 
	C312.191864,290.724396 312.121674,290.210907 312.252594,289.679504 
z"/>
<path fill="#F2EEEF" opacity="1.000000" stroke="none" 
	d="
M254.001556,288.650208 
	C254.472122,288.661285 254.807709,288.816467 255.143280,288.971680 
	C254.971512,289.168030 254.799728,289.364380 254.627945,289.560730 
	C254.374146,289.305267 254.120346,289.049805 254.001556,288.650208 
z"/>
<path fill="#F2EEEF" opacity="1.000000" stroke="none" 
	d="
M277.694275,265.456055 
	C277.836975,265.849487 277.788727,266.191223 277.740479,266.532990 
	C277.480164,266.457916 277.219788,266.382843 276.959412,266.307770 
	C277.140747,266.006653 277.322052,265.705536 277.694275,265.456055 
z"/>
<path fill="#F2EEEF" opacity="1.000000" stroke="none" 
	d="
M267.858459,266.985321 
	C268.239441,266.737061 268.613586,266.683502 268.987793,266.629913 
	C268.979736,266.884552 268.971680,267.139191 268.963623,267.393829 
	C268.592957,267.322540 268.222290,267.251282 267.858459,266.985321 
z"/>
<path fill="#F2EEEF" opacity="1.000000" stroke="none" 
	d="
M327.028198,274.284790 
	C327.646790,274.362061 328.290100,274.734406 329.052063,275.364716 
	C328.464752,275.275085 327.758850,274.927490 327.028198,274.284790 
z"/>
<path fill="#F2EEEF" opacity="1.000000" stroke="none" 
	d="
M264.312988,271.036713 
	C264.105743,271.116058 263.903015,271.067047 263.700317,271.018066 
	C263.906067,270.981506 264.111786,270.944946 264.312988,271.036713 
z"/>
<path fill="#F2EEEF" opacity="1.000000" stroke="none" 
	d="
M193.687027,306.963257 
	C193.894241,306.883881 194.096939,306.932861 194.299652,306.981873 
	C194.093948,307.018433 193.888229,307.054993 193.687027,306.963257 
z"/>
<path fill="#F2EEEF" opacity="1.000000" stroke="none" 
	d="
M280.963135,275.313049 
	C280.883759,275.105774 280.932739,274.902985 280.981750,274.700226 
	C281.018372,274.906006 281.054962,275.111786 280.963135,275.313049 
z"/>
<path fill="#F2EEEF" opacity="1.000000" stroke="none" 
	d="
M89.190506,352.249664 
	C88.989021,352.155792 88.881424,351.976410 88.773819,351.797058 
	C88.944008,351.919434 89.114197,352.041809 89.190506,352.249664 
z"/>
<path fill="#F2EEEF" opacity="1.000000" stroke="none" 
	d="
M273.687073,314.963318 
	C273.894318,314.883942 274.097015,314.932922 274.299713,314.981903 
	C274.093994,315.018494 273.888245,315.055084 273.687073,314.963318 
z"/>
<path fill="#F2EEEF" opacity="1.000000" stroke="none" 
	d="
M197.313110,316.036774 
	C197.105789,316.116150 196.902985,316.067139 196.700180,316.018158 
	C196.906006,315.981567 197.111816,315.944977 197.313110,316.036774 
z"/>
<path fill="#F2EEEF" opacity="1.000000" stroke="none" 
	d="
M273.190552,274.249725 
	C272.989075,274.155823 272.881439,273.976440 272.773773,273.797058 
	C272.944000,273.919464 273.114197,274.041840 273.190552,274.249725 
z"/>
<path fill="#F2EEEF" opacity="1.000000" stroke="none" 
	d="
M208.190582,343.249603 
	C207.989090,343.155701 207.881470,342.976349 207.773834,342.796967 
	C207.944046,342.919373 208.114258,343.041748 208.190582,343.249603 
z"/>
<path fill="#F2EEEF" opacity="1.000000" stroke="none" 
	d="
M249.190582,271.249573 
	C248.989059,271.155701 248.881424,270.976318 248.773788,270.796936 
	C248.944016,270.919312 249.114258,271.041718 249.190582,271.249573 
z"/>
<path fill="#F2EEEF" opacity="1.000000" stroke="none" 
	d="
M209.190659,324.249847 
	C208.989075,324.155914 208.881424,323.976440 208.773773,323.796997 
	C208.944031,323.919434 209.114304,324.041870 209.190659,324.249847 
z"/>
<path fill="#F2EEEF" opacity="1.000000" stroke="none" 
	d="
M201.190598,267.249817 
	C200.989075,267.155884 200.881454,266.976471 200.773819,266.797089 
	C200.944031,266.919525 201.114258,267.041962 201.190598,267.249817 
z"/>
<path fill="#F2EEEF" opacity="1.000000" stroke="none" 
	d="
M202.436462,354.466919 
	C201.903534,354.155457 201.372681,353.809784 200.841827,353.464142 
	C201.205521,353.060394 201.569229,352.656677 201.932922,352.252960 
	C202.033295,352.814056 202.133682,353.375122 202.370499,354.182373 
	C202.506943,354.428558 202.438522,354.432709 202.436462,354.466919 
z"/>
<path fill="#F2EEEF" opacity="1.000000" stroke="none" 
	d="
M253.190475,280.249634 
	C252.988998,280.155731 252.881409,279.976349 252.773804,279.796967 
	C252.944000,279.919373 253.114182,280.041779 253.190475,280.249634 
z"/>
<path fill="#F2EEEF" opacity="1.000000" stroke="none" 
	d="
M239.036850,301.686951 
	C239.116226,301.894226 239.067245,302.096954 239.018280,302.299683 
	C238.981674,302.093903 238.945084,301.888153 239.036850,301.686951 
z"/>
<path fill="#F2EEEF" opacity="1.000000" stroke="none" 
	d="
M333.168152,278.898010 
	C333.663757,278.862030 334.198517,279.092010 334.908203,279.558105 
	C334.457825,279.584167 333.832581,279.374084 333.168152,278.898010 
z"/>
<path fill="#F2EEEF" opacity="1.000000" stroke="none" 
	d="
M259.190552,298.249756 
	C258.989075,298.155853 258.881439,297.976501 258.773834,297.797119 
	C258.944031,297.919525 259.114258,298.041901 259.190552,298.249756 
z"/>
<path fill="#F2EEEF" opacity="1.000000" stroke="none" 
	d="
M136.027832,297.013489 
	C136.420624,297.249512 136.794571,297.463409 137.143829,297.711914 
	C137.186798,297.742493 137.097961,297.958252 137.070190,298.088226 
	C136.761612,297.879852 136.453033,297.671448 136.084961,297.258667 
	C136.025452,297.054291 136.001450,297.001892 136.027832,297.013489 
z"/>
<path fill="#F2EEEF" opacity="1.000000" stroke="none" 
	d="
M252.687073,296.963196 
	C252.894302,296.883820 253.097000,296.932831 253.299683,296.981812 
	C253.093964,297.018372 252.888245,297.054932 252.687073,296.963196 
z"/>
<path fill="#F2EEEF" opacity="1.000000" stroke="none" 
	d="
M156.963257,294.312897 
	C156.883881,294.105652 156.932877,293.902954 156.981857,293.700226 
	C157.018433,293.905945 157.055023,294.111694 156.963257,294.312897 
z"/>
<path fill="#F2EEEF" opacity="1.000000" stroke="none" 
	d="
M300.686951,292.963196 
	C300.894257,292.883850 301.097046,292.932861 301.299835,292.981903 
	C301.094025,293.018463 300.888214,293.054993 300.686951,292.963196 
z"/>
<path fill="#F2EEEF" opacity="1.000000" stroke="none" 
	d="
M240.037003,289.687134 
	C240.116348,289.894318 240.067383,290.096954 240.018402,290.299622 
	C239.981827,290.093933 239.945251,289.888275 240.037003,289.687134 
z"/>
<path fill="#F2EEEF" opacity="1.000000" stroke="none" 
	d="
M174.750290,281.190674 
	C174.844223,280.989136 175.023605,280.881470 175.202972,280.773804 
	C175.080566,280.944031 174.958160,281.114288 174.750290,281.190674 
z"/>
<path fill="#F2EEEF" opacity="1.000000" stroke="none" 
	d="
M186.750275,289.190735 
	C186.844177,288.989197 187.023590,288.881561 187.203003,288.773926 
	C187.080597,288.944153 186.958176,289.114380 186.750275,289.190735 
z"/>
<path fill="#F2EEEF" opacity="1.000000" stroke="none" 
	d="
M317.750305,288.190430 
	C317.844177,287.988953 318.023529,287.881348 318.202881,287.773712 
	C318.080536,287.943939 317.958160,288.114136 317.750305,288.190430 
z"/>
<path fill="#F2EEEF" opacity="1.000000" stroke="none" 
	d="
M196.190521,288.249756 
	C195.988983,288.155823 195.881378,287.976410 195.773758,287.796997 
	C195.943985,287.919403 196.114227,288.041840 196.190521,288.249756 
z"/>
<path fill="#F2EEEF" opacity="1.000000" stroke="none" 
	d="
M206.687012,284.963257 
	C206.894302,284.883881 207.097046,284.932892 207.299805,284.981873 
	C207.094025,285.018463 206.888245,285.055054 206.687012,284.963257 
z"/>
<path fill="#896B6C" opacity="1.000000" stroke="none" 
	d="
M382.416504,284.444336 
	C382.171997,284.899017 381.921265,284.904572 381.293976,284.917694 
	C380.899719,283.864532 380.882019,282.803802 381.255432,281.577423 
	C381.901093,282.272919 382.155640,283.134094 382.416504,284.444336 
z"/>
<path fill="#978587" opacity="1.000000" stroke="none" 
	d="
M379.525940,273.617157 
	C379.426697,274.069916 379.306946,274.517731 379.015900,275.639709 
	C378.558655,275.777710 378.272736,275.241516 377.883606,274.418060 
	C378.077576,274.057709 378.374817,273.984589 379.098999,273.735840 
	C379.525940,273.560272 379.505432,273.612183 379.525940,273.617157 
z"/>
<path fill="#F3F2F3" opacity="1.000000" stroke="none" 
	d="
M200.506714,414.507629 
	C200.486618,414.515015 200.526794,414.500244 200.506714,414.507629 
z"/>
<path fill="#F3F2F3" opacity="1.000000" stroke="none" 
	d="
M238.750336,416.001221 
	C238.998962,416.001221 238.637543,416.207764 238.637543,416.207764 
	C238.637543,416.207764 238.231827,416.169769 238.118134,416.085785 
	C238.004456,416.001801 238.501709,416.001251 238.750336,416.001221 
z"/>
<path fill="#655155" opacity="1.000000" stroke="none" 
	d="
M232.621979,342.072388 
	C232.700958,342.164856 232.728333,342.143616 232.744446,342.156158 
	C232.760574,342.168701 232.682129,341.840088 232.682129,341.840088 
	C232.682129,341.840088 232.542999,341.979919 232.621979,342.072388 
z"/>
<path fill="#F2EEEF" opacity="1.000000" stroke="none" 
	d="
M164.506409,405.493774 
	C164.513443,405.513275 164.499374,405.474243 164.506409,405.493774 
z"/>
<path fill="#F2EEEF" opacity="1.000000" stroke="none" 
	d="
M121.506355,399.506531 
	C121.486832,399.513519 121.525879,399.499512 121.506355,399.506531 
z"/>
<path fill="#5F565A" opacity="1.000000" stroke="none" 
	d="
M419.281799,138.729431 
	C419.116058,138.396347 419.214996,137.821198 419.459900,136.826141 
	C419.915070,136.483429 420.142792,136.663589 420.367554,137.156616 
	C420.146149,137.740112 419.846344,138.113739 419.281799,138.729431 
z"/>
<path fill="#F1EDEE" opacity="1.000000" stroke="none" 
	d="
M238.115036,419.084717 
	C238.001282,419.000000 238.498840,419.000000 238.747589,419.000031 
	C238.996323,419.000061 238.635071,419.208496 238.635071,419.208496 
	C238.635071,419.208496 238.228790,419.169434 238.115036,419.084717 
z"/>
<path fill="#F1EDEE" opacity="1.000000" stroke="none" 
	d="
M290.306824,197.282684 
	C295.715637,188.513550 303.306030,186.639145 312.266174,191.424194 
	C324.680389,198.053833 328.454956,209.529770 329.842407,222.275650 
	C330.068268,224.350372 328.539368,226.616089 327.329956,229.288345 
	C322.216766,233.563278 317.298157,233.718079 312.599548,230.276657 
	C308.796783,227.491394 305.405701,224.144119 301.752899,220.722198 
	C298.814484,217.227631 295.955200,214.056976 293.095886,210.886322 
	C293.095886,210.886322 293.057709,210.947235 293.409241,210.627777 
	C293.207581,209.846420 292.654358,209.384521 292.101166,208.922623 
	C292.101166,208.922623 292.058136,209.009491 292.439392,208.711319 
	C292.544006,207.602402 292.267303,206.791641 291.949829,205.577332 
	C291.374939,202.543411 290.840881,199.913055 290.306824,197.282684 
z"/>
<path fill="#655155" opacity="1.000000" stroke="none" 
	d="
M301.832001,221.046112 
	C305.405701,224.144119 308.796783,227.491394 312.599548,230.276657 
	C317.298157,233.718079 322.216766,233.563278 327.182861,229.621582 
	C323.405609,236.475403 317.248779,238.312546 310.851166,233.554718 
	C306.391113,230.237854 302.779541,225.780060 299.047058,221.467438 
	C300.147400,221.084000 300.989716,221.065048 301.832001,221.046112 
z"/>
<path fill="#786A6D" opacity="1.000000" stroke="none" 
	d="
M301.752899,220.722198 
	C300.989716,221.065048 300.147400,221.084000 298.884827,221.153290 
	C296.552795,217.998306 294.641022,214.792969 292.912567,211.236984 
	C295.955200,214.056976 298.814484,217.227631 301.752899,220.722198 
z"/>
<path fill="#978587" opacity="1.000000" stroke="none" 
	d="
M290.129272,197.525620 
	C290.840881,199.913055 291.374939,202.543411 291.638641,205.585327 
	C290.953064,205.998505 290.537842,206.000153 290.122650,206.001801 
	C290.065674,203.257370 290.008728,200.512970 290.129272,197.525620 
z"/>
<path fill="#786A6D" opacity="1.000000" stroke="none" 
	d="
M290.177368,206.413849 
	C290.537842,206.000153 290.953064,205.998505 291.679443,205.988892 
	C292.267303,206.791641 292.544006,207.602402 292.474823,208.678131 
	C291.905487,208.980728 291.682037,209.018326 291.171936,208.810425 
	C290.885254,208.564926 290.861206,208.362106 290.861206,208.362106 
	C290.651489,207.850052 290.441803,207.337982 290.177368,206.413849 
z"/>
<path fill="#896B6C" opacity="1.000000" stroke="none" 
	d="
M364.840576,245.226227 
	C365.506256,246.110474 366.159698,247.363159 366.833191,248.978363 
	C366.178284,248.092133 365.503326,246.843399 364.840576,245.226227 
z"/>
<path fill="#786A6D" opacity="1.000000" stroke="none" 
	d="
M291.947571,209.257599 
	C292.654358,209.384521 293.207581,209.846420 293.445190,210.627914 
	C292.684387,210.495865 292.239197,210.044220 291.947571,209.257599 
z"/>
<path fill="#5F565A" opacity="1.000000" stroke="none" 
	d="
M290.455872,152.171997 
	C290.563446,152.141495 290.698730,152.271927 290.903809,152.532104 
	C290.773468,152.613968 290.610138,152.504303 290.455872,152.171997 
z"/>
<path fill="#978587" opacity="1.000000" stroke="none" 
	d="
M379.557953,279.486420 
	C379.657959,279.535522 379.758972,279.821381 379.920013,280.330811 
	C379.749695,280.323944 379.609314,280.046875 379.557953,279.486420 
z"/>
<path fill="#978587" opacity="1.000000" stroke="none" 
	d="
M290.814392,208.412262 
	C290.861206,208.362106 290.885254,208.564926 290.897461,208.609924 
	C290.909637,208.654938 290.767578,208.462433 290.814392,208.412262 
z"/>
<path fill="#896B6C" opacity="1.000000" stroke="none" 
	d="
M367.130066,250.206665 
	C367.343475,250.142105 367.547943,250.362854 367.821503,250.818069 
	C367.672089,250.830505 367.415588,250.643661 367.130066,250.206665 
z"/>
</svg>